<!--?xml version="1.0" encoding="utf-8"?-->
<!-- Generator: Adobe Illustrator 19.1.1, SVG Export Plug-In . SVG Version: 6.00 Build 0)  -->
<svg version="1.1" id="_x31_0" xmlns="http://www.w3.org/2000/svg" xmlns:xlink="http://www.w3.org/1999/xlink" x="0px" y="0px" viewBox="0 0 512 512" style="width: 256px; height: 256px; opacity: 1;" xml:space="preserve">
<style type="text/css">
	.st0{fill:#374149;}
</style>
<g>
	<path class="st0" d="M373.776,249.732c-6.582,0-12.86,1.227-18.731,3.653c-14.129-7.871-31.473-8.286-45.86-1.25
		c-6.867-3.687-14.524-5.77-22.126-5.996v-70.174c0-39.02-26.106-59.438-51.892-59.438c-26.254,0-53.415,22.23-53.415,59.438v99.87
		l-8.106,4.422c-20.157,10.988-32.677,32.082-32.677,55.044l0.004,34.418c-0.878,23.786,12.707,45.826,34.087,55.846
		C191.314,478.226,241.761,512,304.86,512c58.197,0,120.39-32.966,120.39-125.483V307.41
		C425.249,269.944,398.729,249.732,373.776,249.732z M388.577,386.517c0,67.415-42.36,88.806-83.717,88.806
		c-51.017,0-92.373-27.532-98.057-76.408l-15.062-6.078c-8.962-3.613-14.63-12.527-14.098-22.18v-35.356
		c0-9.528,5.203-18.29,13.567-22.848l8.442-4.61v39.13l11.867,8.207l6.75,4.782v-0.114l0.16,0.114c0,0,0-159.047,0-183.997
		c0-14.641,8.504-22.762,16.738-22.762c7.727,0,15.215,7.149,15.215,22.762c0,24.383,0,102.87,0,128.281h19.555h0.058h0.161
		c0-14.294,7.77-21.454,15.531-21.454c7.754,0,15.504,7.144,15.504,21.454h14.282h0.043h0.16c0-13.567,7.703-20.54,15.337-20.54
		c7.5,0,14.934,6.73,14.934,20.54h13.895h0.042h0.16c0-11.7,6.782-17.833,13.731-17.833c7.305,0,14.801,6.774,14.801,20.997
		C388.577,327.609,388.577,358.504,388.577,386.517z" style="fill: rgb(75, 75, 75);"></path>
	<path class="st0" d="M235.523,74.228c4.91,0.004,8.973-3.805,9.301-8.703l3.61-55.606c0.351-5.367-3.91-9.918-9.286-9.914
		L231.941,0c-5.383-0.004-9.641,4.543-9.301,9.914l3.594,55.602C226.546,70.419,230.609,74.232,235.523,74.228z" style="fill: rgb(75, 75, 75);"></path>
	<path class="st0" d="M144.919,99.182l-36.766-41.875c-3.547-4.051-9.774-4.254-13.578-0.454l-5.098,5.098
		c-3.801,3.801-3.602,10.032,0.438,13.582l41.864,36.786c3.68,3.234,9.254,3.054,12.719-0.414
		C147.973,108.436,148.157,102.866,144.919,99.182z" style="fill: rgb(75, 75, 75);"></path>
	<path class="st0" d="M339.252,112.366l41.88-36.758c4.042-3.551,4.25-9.778,0.437-13.582l-5.086-5.098
		c-3.813-3.809-10.032-3.606-13.586,0.434l-36.782,41.864c-3.242,3.684-3.062,9.254,0.406,12.731
		C329.989,115.425,335.56,115.604,339.252,112.366z" style="fill: rgb(75, 75, 75);"></path>
</g>
</svg>
